<?xml version="1.0" encoding="utf-8"?>
<!-- Generator: Adobe Illustrator 17.0.0, SVG Export Plug-In . SVG Version: 6.00 Build 0)  -->
<!DOCTYPE svg PUBLIC "-//W3C//DTD SVG 1.1//EN" "http://www.w3.org/Graphics/SVG/1.1/DTD/svg11.dtd">
<svg version="1.1" id="Layer_1" xmlns="http://www.w3.org/2000/svg" xmlns:xlink="http://www.w3.org/1999/xlink" x="0px" y="0px"
	 width="256px" height="295px" viewBox="0 0 256 295" enable-background="new 0 0 256 295" xml:space="preserve">
<g>
	<path id="Frame_1_" d="M255.856,241.04c0,1.836-1.907,3.325-4.258,3.325H3.565c-2.352,0-4.258-1.489-4.258-3.325V52.562
		c0-1.836,1.906-3.325,4.258-3.325h248.033c2.351,0,4.258,1.489,4.258,3.325V241.04z"/>
	<path opacity="0.5" fill="#595959" d="M251.598,244.552H3.565c-2.451,0-4.445-1.575-4.445-3.512V52.562
		c0-1.937,1.994-3.512,4.445-3.512h248.033c2.451,0,4.445,1.575,4.445,3.512V241.04
		C256.043,242.977,254.049,244.552,251.598,244.552z M3.565,49.425c-2.245,0-4.071,1.408-4.071,3.138V241.04
		c0,1.73,1.826,3.137,4.071,3.137h248.033c2.245,0,4.071-1.407,4.071-3.137V52.562c0-1.73-1.826-3.138-4.071-3.138H3.565z"/>
</g>
<g>
	<g>
		<linearGradient id="Screen_Black_1_" gradientUnits="userSpaceOnUse" x1="127.5815" y1="227.1365" x2="127.5815" y2="66.4656">
			<stop  offset="0" style="stop-color:#1A1A1A"/>
			<stop  offset="1" style="stop-color:#000000"/>
		</linearGradient>
		<rect id="Screen_Black_8_" x="16.16" y="66.466" fill="url(#Screen_Black_1_)" width="222.842" height="160.671"/>
	</g>
</g>
<polygon id="Carrot" fill="#EAEAEA" points="34.636,92.433 60.104,103.045 34.636,113.531 34.636,121.771 71.465,107.102 
	71.465,99.174 34.636,84.069 "/>
<rect id="Underscore" x="74.835" y="126.14" fill="#EAEAEA" width="35.829" height="7.49"/>
</svg>
